{"title":"Ferocious Planet (2011) DVDrip AC3 NL Subs DMT","uid":6497800,"size":1468423548,"categoryP":"video","categoryS":"movies","magnet":"?xt=urn:btih:70872fc415a0b60db00e5cd60d9ea072df00c826&amp;dn=Ferocious+Planet+%282011%29+DVDrip+AC3+NL+Subs+DMT&amp;tr=udp%3A%2F%2Ftracker.openbittorrent.com%3A80&amp;tr=udp%3A%2F%2Fopen.demonii.com%3A1337&amp;tr=udp%3A%2F%2Ftracker.coppersurfer.tk%3A6969&amp;tr=udp%3A%2F%2Fexodus.desync.com%3A6969","seeders":1,"leechers":0,"uploader":"NLUPPER002","files":-1,"time":1309136145,"description":"Ferocious Planet (2011) DVDrip AC3 NL Subs DMT\n.\n[IMG]http://img844.imageshack.us/img844/4347/66506.jpg[/IMG]\n.\nVerenigde Staten\nSciencefiction / Thriller\n88 minuten\n.\ngeregisseerd door Billy O'Brien\nmet Joe Flanigan, John Rhys-Davies en Chris Newman\n.\nEen briljant fysicus maakt in opdracht van de regering een baanbrekende machine die andere universa kan ontdekken. Bij de eerste presentatie begeeft de machine het, waardoor een groepje mensen in een angstaanjagende nieuwe dimensie terecht komt. De personen zullen alles op alles moeten zetten om de mensenetende wezens in de bizarre nieuwe wereld waarin ze terecht gekomen zijn, uit te schakelen. Ondertussen werken reparateurs met man en macht aan de machine om deze te repareren.\n. &lt;a href=&quot;\nhttp://www.moviemeter.nl/film/66506&quot; rel=&quot;nofollow&quot; target=&quot;_NEW&quot;&gt;\nhttp://www.moviemeter.nl/film/66506&lt;/a&gt;\n.\nPLOT\n.\nA groundbreaking device is designed to glimpse alternate universes. But when the machine malfunctions and transports a group of observers into a nightmarish dimension of alien terrors, the travelers must use ingenuity to survive. \n. &lt;a href=&quot;\nhttp://www.imdb.com/title/tt1637728/&quot; rel=&quot;nofollow&quot; target=&quot;_NEW&quot;&gt;\nhttp://www.imdb.com/title/tt1637728/&lt;/a&gt;\n.\nINFO\n.\nSource: Retail\nFormat                           : MPEG-4 Visual\nFormat profile                   : Advanced Simple@L5\nFormat settings, BVOP            : 1\nFormat settings, QPel            : No\nFormat settings, GMC             : No warppoints\nFormat settings, Matrix          : Default (H.263)\nMuxing mode                      : Packed bitstream\nCodec ID                         : DX50\nCodec ID/Hint                    : DivX 5\nDuration                         : 1h 24mn\nBit rate                         : 1 855 Kbps\nWidth                            : 720 pixels\nHeight                           : 406 pixels\nDisplay aspect ratio             : 16:9\nFrame rate                       : 25.000 fps\nColor space                      : YUV\nChroma subsampling               : 4:2:0\nBit depth                        : 8 bits\nScan type                        : Progressive\nCompression mode                 : Lossy\nBits/(Pixel*Frame)               : 0.254\nStream size                      : 1.10 GiB (80%)\nWriting library                  : XviD 1.2.1 (UTC 2008-12-04)\n\nAudio\nID                               : 1\nFormat                           : AC-3\nFormat/Info                      : Audio Coding 3\nMode extension                   : CM (complete main)\nCodec ID                         : 2000\nDuration                         : 1h 24mn\nBit rate mode                    : Constant\nBit rate                         : 448 Kbps\nChannel(s)                       : 6 channels\nChannel positions                : Front: L C R, Side: L R, LFE\nSampling rate                    : 48.0 KHz\nBit depth                        : 16 bits\nCompression mode                 : Lossy\nStream size                      : 271 MiB (19%)\nAlignment                        : Aligned on interleaves\nInterleave, duration             : 32 ms (0.80 video frame)\nInterleave, preload duration     : 32 ms\n.\nSubs: Dutch (SRT-File)\n.\nEnjoy\n.\nDeze film wordt u aangeboden door:\n\nDUTCH MOVIE THEATER\n\n[IMG]http://img220.imageshack.us/img220/2386/dmta.png[/IMG\n","torrent":{"xt":"urn:btih:70872fc415a0b60db00e5cd60d9ea072df00c826","amp;dn":"Ferocious+Planet+%282011%29+DVDrip+AC3+NL+Subs+DMT","amp;tr":["udp%3A%2F%2Ftracker.openbittorrent.com%3A80","udp%3A%2F%2Fopen.demonii.com%3A1337","udp%3A%2F%2Ftracker.coppersurfer.tk%3A6969","udp%3A%2F%2Fexodus.desync.com%3A6969"],"infoHash":"70872fc415a0b60db00e5cd60d9ea072df00c826","infoHashBuffer":{"type":"Buffer","data":[112,135,47,196,21,160,182,13,176,14,92,214,13,158,160,114,223,0,200,38]},"announce":[],"urlList":[]}}